<svg width="120" height="118" viewBox="0 0 120 118" fill="none" xmlns="http://www.w3.org/2000/svg">
<rect width="120" height="118" fill="#BAC6D3"/>
<mask id="mask0_379_9845" style="mask-type:alpha" maskUnits="userSpaceOnUse" x="36" y="32" width="48" height="48">
<rect x="36" y="32" width="48" height="48" fill="#D9D9D9"/>
</mask>
<g mask="url(#mask0_379_9845)">
<path d="M59.9995 68C64.4661 68 68.2495 66.4417 71.3495 63.325C74.4495 60.2083 75.9995 56.4333 75.9995 52C75.9995 50.9667 75.9161 49.975 75.7495 49.025C75.5828 48.075 75.3161 47.15 74.9495 46.25C74.0495 46.8167 73.0995 47.25 72.0995 47.55C71.0995 47.85 70.0661 48 68.9995 48C67.1995 48 65.5078 47.5917 63.9245 46.775C62.3411 45.9583 61.0328 44.8 59.9995 43.3C58.9661 44.8 57.6578 45.9583 56.0745 46.775C54.4911 47.5917 52.7995 48 50.9995 48C49.9328 48 48.8995 47.85 47.8995 47.55C46.8995 47.25 45.9495 46.8167 45.0495 46.25C44.6828 47.15 44.4161 48.075 44.2495 49.025C44.0828 49.975 43.9995 50.9667 43.9995 52C43.9995 56.4333 45.5578 60.2083 48.6745 63.325C51.7911 66.4417 55.5661 68 59.9995 68ZM53.9995 56.5C54.6995 56.5 55.2911 56.2583 55.7745 55.775C56.2578 55.2917 56.4995 54.7 56.4995 54C56.4995 53.3 56.2578 52.7083 55.7745 52.225C55.2911 51.7417 54.6995 51.5 53.9995 51.5C53.2995 51.5 52.7078 51.7417 52.2245 52.225C51.7411 52.7083 51.4995 53.3 51.4995 54C51.4995 54.7 51.7411 55.2917 52.2245 55.775C52.7078 56.2583 53.2995 56.5 53.9995 56.5ZM65.9995 56.5C66.6995 56.5 67.2911 56.2583 67.7745 55.775C68.2578 55.2917 68.4995 54.7 68.4995 54C68.4995 53.3 68.2578 52.7083 67.7745 52.225C67.2911 51.7417 66.6995 51.5 65.9995 51.5C65.2995 51.5 64.7078 51.7417 64.2245 52.225C63.7411 52.7083 63.4995 53.3 63.4995 54C63.4995 54.7 63.7411 55.2917 64.2245 55.775C64.7078 56.2583 65.2995 56.5 65.9995 56.5ZM40.3995 76C39.2328 76 38.2495 75.5667 37.4495 74.7C36.6495 73.8333 36.2995 72.8167 36.3995 71.65L38.1995 51.9C38.4661 49.1 39.2245 46.4833 40.4745 44.05C41.7245 41.6167 43.3245 39.5083 45.2745 37.725C47.2245 35.9417 49.4578 34.5417 51.9745 33.525C54.4911 32.5083 57.1661 32 59.9995 32C62.8328 32 65.5078 32.5083 68.0245 33.525C70.5411 34.5417 72.7745 35.9417 74.7245 37.725C76.6745 39.5083 78.2745 41.6167 79.5245 44.05C80.7745 46.4833 81.5328 49.1 81.7995 51.9L83.5995 71.65C83.6995 72.8167 83.3495 73.8333 82.5495 74.7C81.7495 75.5667 80.7661 76 79.5995 76H40.3995Z" fill="#F6F8FB"/>
</g>
</svg>
