<svg width="16" height="16" viewBox="0 0 16 16" fill="none" xmlns="http://www.w3.org/2000/svg">
<mask id="mask0_379_8573" style="mask-type:alpha" maskUnits="userSpaceOnUse" x="0" y="0" width="16" height="16">
<rect width="16" height="16" fill="#D9D9D9"/>
</mask>
<g mask="url(#mask0_379_8573)">
<path d="M3.33333 13.8005C2.96667 13.8005 2.65278 13.67 2.39167 13.4089C2.13056 13.1477 2 12.8339 2 12.4672V3.13385C2 2.76719 2.13056 2.4533 2.39167 2.19219C2.65278 1.93108 2.96667 1.80052 3.33333 1.80052H9.28333L7.95 3.13385H3.33333V12.4672H12.6667V7.83385L14 6.50052V12.4672C14 12.8339 13.8694 13.1477 13.6083 13.4089C13.3472 13.67 13.0333 13.8005 12.6667 13.8005H3.33333ZM10.7833 2.18385L11.7333 3.11719L7.33333 7.51719V8.46719H8.26667L12.6833 4.05052L13.6333 4.98385L8.83333 9.80052H6V6.96719L10.7833 2.18385ZM13.6333 4.98385L10.7833 2.18385L12.45 0.517188C12.7167 0.250521 13.0361 0.117188 13.4083 0.117188C13.7806 0.117188 14.0944 0.250521 14.35 0.517188L15.2833 1.46719C15.5389 1.72274 15.6667 2.03385 15.6667 2.40052C15.6667 2.76719 15.5389 3.0783 15.2833 3.33385L13.6333 4.98385Z" fill="white"/>
</g>
</svg>
