<svg width="24" height="22" viewBox="0 0 24 22" fill="none" xmlns="http://www.w3.org/2000/svg">
<path d="M11.9997 18C14.2331 18 16.1247 17.2208 17.6747 15.6625C19.2247 14.1042 19.9997 12.2167 19.9997 10C19.9997 9.48333 19.9581 8.9875 19.8747 8.5125C19.7914 8.0375 19.6581 7.575 19.4747 7.125C19.0247 7.40833 18.5497 7.625 18.0497 7.775C17.5497 7.925 17.0331 8 16.4997 8C15.5997 8 14.7539 7.79583 13.9622 7.3875C13.1706 6.97917 12.5164 6.4 11.9997 5.65C11.4831 6.4 10.8289 6.97917 10.0372 7.3875C9.24557 7.79583 8.39974 8 7.49974 8C6.96641 8 6.44974 7.925 5.94974 7.775C5.44974 7.625 4.97474 7.40833 4.52474 7.125C4.34141 7.575 4.20807 8.0375 4.12474 8.5125C4.04141 8.9875 3.99974 9.48333 3.99974 10C3.99974 12.2167 4.77891 14.1042 6.33724 15.6625C7.89557 17.2208 9.78307 18 11.9997 18ZM8.99974 12.25C9.34974 12.25 9.64557 12.1292 9.88724 11.8875C10.1289 11.6458 10.2497 11.35 10.2497 11C10.2497 10.65 10.1289 10.3542 9.88724 10.1125C9.64557 9.87083 9.34974 9.75 8.99974 9.75C8.64974 9.75 8.35391 9.87083 8.11224 10.1125C7.87057 10.3542 7.74974 10.65 7.74974 11C7.74974 11.35 7.87057 11.6458 8.11224 11.8875C8.35391 12.1292 8.64974 12.25 8.99974 12.25ZM14.9997 12.25C15.3497 12.25 15.6456 12.1292 15.8872 11.8875C16.1289 11.6458 16.2497 11.35 16.2497 11C16.2497 10.65 16.1289 10.3542 15.8872 10.1125C15.6456 9.87083 15.3497 9.75 14.9997 9.75C14.6497 9.75 14.3539 9.87083 14.1122 10.1125C13.8706 10.3542 13.7497 10.65 13.7497 11C13.7497 11.35 13.8706 11.6458 14.1122 11.8875C14.3539 12.1292 14.6497 12.25 14.9997 12.25ZM2.19974 22C1.61641 22 1.12474 21.7833 0.72474 21.35C0.32474 20.9167 0.14974 20.4083 0.19974 19.825L1.09974 9.95C1.23307 8.55 1.61224 7.24167 2.23724 6.025C2.86224 4.80833 3.66224 3.75417 4.63724 2.8625C5.61224 1.97083 6.72891 1.27083 7.98724 0.7625C9.24557 0.254167 10.5831 0 11.9997 0C13.4164 0 14.7539 0.254167 16.0122 0.7625C17.2706 1.27083 18.3872 1.97083 19.3622 2.8625C20.3372 3.75417 21.1372 4.80833 21.7622 6.025C22.3872 7.24167 22.7664 8.55 22.8997 9.95L23.7997 19.825C23.8497 20.4083 23.6747 20.9167 23.2747 21.35C22.8747 21.7833 22.3831 22 21.7997 22H2.19974Z" fill="#019F42"/>
</svg>
