<svg width="266" height="168" viewBox="0 0 266 168" fill="none" xmlns="http://www.w3.org/2000/svg">
<g clip-path="url(#clip0_21_13329)">
<path d="M163.42 114.24H145.77C140.23 114.24 135.73 118.74 135.73 124.28V153.52C135.73 159.06 140.24 163.56 145.77 163.56H175.01C180.55 163.56 185.05 159.06 185.05 153.52V135.87C185.05 123.94 175.35 114.23 163.42 114.23V114.24ZM172.01 150.52H148.77V127.28H163.42C168.16 127.28 172.01 131.13 172.01 135.87V150.51V150.52Z" fill="#00BA46"/>
<path d="M24.27 108.94C22.54 108.75 20.85 109.24 19.48 110.33C18.11 111.42 17.26 112.97 17.07 114.7C17.04 115 13.62 144.61 1.91 156.32C0.68 157.55 0 159.19 0 160.93C0 162.67 0.68 164.31 1.91 165.54C3.14 166.77 4.78 167.45 6.52 167.45C8.26 167.45 9.9 166.77 11.13 165.54C26.1 150.57 29.88 117.52 30.03 116.12C30.42 112.55 27.84 109.32 24.26 108.93L24.27 108.94Z" fill="#00BA46"/>
<path d="M51.97 125.83C49.32 123.44 45.2 123.64 42.79 126.29C40.38 128.93 40.56 133.06 43.19 135.49C43.27 135.57 51.34 143.25 53.59 156.69C54.12 159.85 56.82 162.14 60.02 162.14C60.38 162.14 60.75 162.11 61.1 162.05C64.65 161.46 67.05 158.09 66.46 154.54C63.42 136.35 52.43 126.27 51.96 125.84L51.97 125.83Z" fill="#00BA46"/>
<path d="M93.42 114.28C89.87 113.89 86.62 116.48 86.23 120.05C85.52 126.51 82.03 144.93 74.52 152.43C71.98 154.97 71.98 159.11 74.52 161.65C75.75 162.88 77.39 163.56 79.13 163.56C80.87 163.56 82.51 162.88 83.74 161.65C96 149.4 99.06 122.61 99.19 121.47C99.38 119.74 98.89 118.04 97.8 116.68C96.71 115.32 95.16 114.47 93.42 114.28Z" fill="#00BA46"/>
<path d="M211.04 114.28C207.47 113.88 204.24 116.48 203.84 120.04C203.12 126.51 199.62 144.94 192.14 152.43C190.91 153.66 190.23 155.3 190.23 157.04C190.23 158.78 190.91 160.42 192.14 161.65C193.37 162.88 195.01 163.56 196.75 163.56C198.49 163.56 200.13 162.88 201.36 161.65C213.62 149.4 216.68 122.61 216.81 121.47C217.2 117.9 214.62 114.67 211.04 114.28Z" fill="#00BA46"/>
<path d="M116.24 128.07C113.59 125.69 109.48 125.89 107.07 128.52C104.66 131.15 104.83 135.28 107.45 137.71C107.51 137.77 113.63 143.64 115.34 153.86C115.87 157.02 118.57 159.31 121.77 159.31C122.13 159.31 122.5 159.28 122.85 159.22C126.4 158.63 128.8 155.26 128.21 151.71C125.71 136.76 116.62 128.42 116.24 128.07Z" fill="#00BA46"/>
<path d="M264.78 128.64C264.24 126.98 263.08 125.64 261.53 124.85C258.32 123.23 254.39 124.51 252.76 127.72C247.37 138.37 239.75 143.85 233.79 146.65V115.42C233.79 111.82 230.86 108.9 227.27 108.9C223.68 108.9 220.75 111.83 220.75 115.42V155.6C220.75 157.49 221.57 159.28 222.99 160.52C224.18 161.55 225.7 162.12 227.27 162.12C227.57 162.12 227.87 162.1 228.17 162.06C229.13 161.93 251.8 158.5 264.4 133.62C265.19 132.07 265.32 130.3 264.78 128.64Z" fill="#00BA46"/>
<path d="M202.42 79.48C211.33 70.64 215.78 59.63 215.78 46.47C215.78 32.62 211.36 21.42 202.53 12.85C193.69 4.28 182.46 0 168.84 0C151.77 0 138.37 8.57 128.63 25.71H128.18C117.25 8.57 102.8 0 84.84 0C71.36 0 60.17 4.29 51.26 12.85C42.35 21.42 37.9 32.59 37.9 46.37C37.9 60.15 42.32 71.32 51.15 79.89C59.98 88.46 71.21 92.74 84.84 92.74C101.91 92.74 115.31 84.17 125.04 67.03H125.49C136.42 84.17 150.87 92.74 168.84 92.74C182.32 92.74 193.51 88.32 202.42 79.48ZM83.79 75.02C67.97 75.02 55.14 62.19 55.14 46.37C55.14 30.55 67.97 17.72 83.79 17.72C96.17 17.72 106.71 25.57 110.72 36.56C113.26 41.44 115.53 44.04 116.89 45.31C117.5 45.88 117.5 46.84 116.89 47.41C115.54 48.67 113.27 51.27 110.74 56.12C110.49 56.81 110.21 57.49 109.91 58.16C89.65 54.9 80.47 46.44 78.61 44.52L82.32 38.07C83.3 36.37 82.72 34.19 81.01 33.21C79.31 32.23 77.13 32.82 76.15 34.52L64.51 54.73C63.53 56.43 64.11 58.61 65.82 59.59C66.38 59.91 66.99 60.07 67.59 60.07C68.82 60.07 70.02 59.43 70.68 58.29L74.95 50.88C78.92 54.48 88.44 61.36 105.8 64.68C100.55 70.99 92.65 75.02 83.79 75.02ZM147.43 64.7C164.85 61.36 174.66 54.37 178.7 50.82L183 58.28C183.66 59.42 184.86 60.06 186.09 60.06C186.69 60.06 187.3 59.91 187.86 59.58C189.56 58.6 190.15 56.42 189.17 54.72L177.53 34.51C176.55 32.81 174.37 32.22 172.67 33.2C170.97 34.18 170.38 36.36 171.36 38.06L175.07 44.49C173.03 46.53 163.5 54.97 143.34 58.18C143.03 57.5 142.75 56.81 142.49 56.1C139.96 51.24 137.69 48.65 136.34 47.39C135.73 46.82 135.73 45.86 136.34 45.29C137.7 44.02 139.97 41.42 142.51 36.54C146.52 25.55 157.06 17.7 169.44 17.7C185.26 17.7 198.09 30.53 198.09 46.35C198.09 62.17 185.26 75 169.44 75C160.6 75 152.7 70.98 147.45 64.68L147.43 64.7Z" fill="#00BA46"/>
</g>
<defs>
<clipPath id="clip0_21_13329">
<rect width="265.11" height="167.46" fill="white"/>
</clipPath>
</defs>
</svg>
