<svg width="12" height="13" viewBox="0 0 12 13" fill="none" xmlns="http://www.w3.org/2000/svg">
<path d="M5.33464 12.966C3.99019 12.7993 2.8763 12.2132 1.99297 11.2077C1.10964 10.2021 0.667969 9.02157 0.667969 7.66602C0.667969 6.93268 0.812413 6.2299 1.1013 5.55768C1.39019 4.88546 1.8013 4.29935 2.33464 3.79935L3.28464 4.74935C2.86241 5.12713 2.54297 5.56602 2.3263 6.06602C2.10964 6.56602 2.0013 7.09935 2.0013 7.66602C2.0013 8.64379 2.31241 9.50768 2.93464 10.2577C3.55686 11.0077 4.35686 11.466 5.33464 11.6327V12.966ZM6.66797 12.966V11.6327C7.63463 11.4549 8.43186 10.9938 9.05964 10.2493C9.68741 9.5049 10.0013 8.64379 10.0013 7.66602C10.0013 6.5549 9.61241 5.61046 8.83463 4.83268C8.05686 4.0549 7.11241 3.66602 6.0013 3.66602H5.9513L6.68464 4.39935L5.7513 5.33268L3.41797 2.99935L5.7513 0.666016L6.68464 1.59935L5.9513 2.33268H6.0013C7.49019 2.33268 8.7513 2.84935 9.78463 3.88268C10.818 4.91602 11.3346 6.17713 11.3346 7.66602C11.3346 9.01046 10.893 10.1855 10.0096 11.191C9.1263 12.1966 8.01241 12.7882 6.66797 12.966Z" fill="#019F42"/>
</svg>

