<svg width="24" height="24" viewBox="0 0 24 24" fill="none" xmlns="http://www.w3.org/2000/svg">
<rect width="24" height="24" rx="12" fill="#06C755"/>
<path d="M15.1818 19C16.2424 19 17.1439 18.6288 17.8864 17.8864C18.6288 17.1439 19 16.2424 19 15.1818H18.0455C18.0455 15.9773 17.767 16.6534 17.2102 17.2102C16.6534 17.767 15.9773 18.0455 15.1818 18.0455V19ZM5 8.81818H5.95455C5.95455 8.02273 6.23295 7.34659 6.78977 6.78977C7.34659 6.23295 8.02273 5.95455 8.81818 5.95455V5C7.75758 5 6.85606 5.37121 6.11364 6.11364C5.37121 6.85606 5 7.75758 5 8.81818ZM6.60682 17.3932C5.54621 16.3326 5.01591 15.0598 5.01591 13.575C5.01591 12.0902 5.54621 10.8174 6.60682 9.75682L8.85 7.49773C9.15758 7.19015 9.53144 7.03636 9.97159 7.03636C10.4117 7.03636 10.7856 7.19015 11.0932 7.49773C11.1356 7.54015 11.1754 7.58258 11.2125 7.625C11.2496 7.66742 11.2788 7.70985 11.3 7.75227L12.9068 6.14545C13.2144 5.83788 13.5883 5.68409 14.0284 5.68409C14.4686 5.68409 14.8424 5.83788 15.15 6.14545C15.203 6.19848 15.2455 6.24621 15.2773 6.28864L15.3727 6.41591C15.6803 6.20379 16.025 6.11364 16.4068 6.14545C16.7886 6.17727 17.1174 6.33106 17.3932 6.60682C17.6371 6.85076 17.7856 7.12917 17.8386 7.44205C17.8917 7.75492 17.8545 8.06515 17.7273 8.37273C17.7909 8.40455 17.8519 8.44167 17.9102 8.48409C17.9686 8.52652 18.0242 8.57424 18.0773 8.62727C18.3848 8.93485 18.5386 9.30871 18.5386 9.74886C18.5386 10.189 18.3848 10.5629 18.0773 10.8705L17.8227 11.125C17.8652 11.1462 17.9076 11.1754 17.95 11.2125C17.9924 11.2496 18.0348 11.2894 18.0773 11.3318C18.3848 11.6394 18.5386 12.0133 18.5386 12.4534C18.5386 12.8936 18.3848 13.2674 18.0773 13.575L14.2432 17.3932C13.1826 18.4538 11.9098 18.9841 10.425 18.9841C8.94015 18.9841 7.66742 18.4538 6.60682 17.3932ZM7.49773 16.5023C7.90076 16.9053 8.35682 17.2076 8.86591 17.4091C9.375 17.6106 9.8947 17.7114 10.425 17.7114C10.9553 17.7114 11.475 17.6106 11.9841 17.4091C12.4932 17.2076 12.9492 16.9053 13.3523 16.5023L17.1705 12.6682C17.2341 12.6045 17.2659 12.5303 17.2659 12.4455C17.2659 12.3606 17.2341 12.2864 17.1705 12.2227C17.1068 12.1591 17.0326 12.1273 16.9477 12.1273C16.8629 12.1273 16.7886 12.1591 16.725 12.2227L14.4818 14.4818L13.575 13.575L17.1705 9.97955C17.2341 9.91591 17.2659 9.83902 17.2659 9.74886C17.2659 9.65871 17.2341 9.58182 17.1705 9.51818C17.1068 9.46515 17.0326 9.43598 16.9477 9.43068C16.8629 9.42538 16.7886 9.45455 16.725 9.51818L13.575 12.6682L12.6682 11.7773L16.5023 7.94318C16.5659 7.87955 16.5977 7.8053 16.5977 7.72045C16.5977 7.63561 16.5659 7.56136 16.5023 7.49773C16.4386 7.43409 16.3644 7.40227 16.2795 7.40227C16.1947 7.40227 16.1205 7.43409 16.0568 7.49773L12.2227 11.3318L11.3318 10.425L14.2432 7.49773C14.3068 7.43409 14.3386 7.35985 14.3386 7.275C14.3386 7.19015 14.3068 7.11591 14.2432 7.05227C14.1902 6.98864 14.1186 6.95682 14.0284 6.95682C13.9383 6.95682 13.8614 6.98864 13.7977 7.05227L9.78864 11.0614C10.0114 11.6341 10.0644 12.2307 9.94773 12.8511C9.83106 13.4716 9.53939 14.0152 9.07273 14.4818L8.18182 13.575C8.55303 13.2038 8.73864 12.753 8.73864 12.2227C8.73864 11.6924 8.55303 11.2417 8.18182 10.8705L10.2023 8.85C10.2659 8.78636 10.2977 8.71212 10.2977 8.62727C10.2977 8.54242 10.2659 8.46818 10.2023 8.40455C10.1386 8.34091 10.0644 8.31174 9.97955 8.31705C9.8947 8.32235 9.82045 8.35152 9.75682 8.40455L7.49773 10.6477C7.0947 11.0508 6.79242 11.5068 6.59091 12.0159C6.38939 12.525 6.28864 13.0447 6.28864 13.575C6.28864 14.1053 6.38939 14.625 6.59091 15.1341C6.79242 15.6432 7.0947 16.0992 7.49773 16.5023Z" fill="white"/>
</svg>
